<svg height="240.563" width="197.097" xmlns="http://www.w3.org/2000/svg"><g fill="#231F20"><path d="M197.097 107.427c-.006-22.327-18.131-40.409-40.484-40.412-10.746-.002-20.533 4.201-27.78 11.032a40.632 40.632 0 00-10.298-8.333c4.204.279 8.896.554 13.899.785a2.512 2.512 0 002.415-1.52 2.5 2.5 0 00-.582-2.792 190.826 190.826 0 01-3.086-2.989c5.291-.418 13.649-1.414 22.049-3.791a2.494 2.494 0 001.741-1.788 2.493 2.493 0 00-.67-2.4c-3.218-2.91-7.671-4.093-10.923-4.748 8.77-5.921 18.168-17.834 18.407-17.929l.003-.002.006-.009a2.489 2.489 0 00.558-1.822 2.48 2.48 0 00.286-1.174 2.503 2.503 0 00-2.536-2.465c-.285.239-17.725-.102-27.972 4.294.606-1.976 1.318-4.517 1.362-7.262a13.007 13.007 0 00-.553-3.829 2.498 2.498 0 00-4.223-.973 1802.23 1802.23 0 01-13.805 14.697c-.745-1.398-1.763-3.573-3.027-6.887a2.5 2.5 0 00-4.728.162 3025.962 3025.962 0 00-7.678 25.652c-.938-16.594-4.696-40.8-22.324-52.19a5 5 0 00-5.213 8.533c5.765 3.234 9.788 9.746 12.54 17.339a31.745 31.745 0 00-6.112-1.93c-1.997-2.572-4.753-5.16-8.38-7.717-6.782-4.796-13.075-6.92-18.654-6.923-13.032.04-20.609 11.48-20.63 22.538-.018 6.909 2.931 14.048 9.432 18.49a2.5 2.5 0 102.824-4.125c-4.974-3.409-7.24-8.8-7.254-14.365.071-9.051 5.947-17.521 15.629-17.538 4.283-.003 9.589 1.641 15.77 6.005a43.91 43.91 0 013.726 2.938c-7.407.474-14.767 4.93-14.783 15.023.012 7.214 5.254 11.083 10.574 11.095 7.266-.055 15.692-5.646 15.874-14.768a14.63 14.63 0 00-.705-4.379c1.882.793 3.555 1.741 4.836 2.709 2.573 10.207 3.32 21.108 3.172 28.247 0 1.319-.019 2.489-.045 3.502a40.424 40.424 0 00-20.237 11.295c-7.348-7.554-17.655-12.264-29.031-12.264C18.131 64.442.003 82.523 0 104.854c.002 15.721 8.996 29.327 22.117 36.009a40.243 40.243 0 00-3.536 16.538c.003 21.153 16.271 38.482 36.987 40.255-.05.826-.085 1.655-.085 2.492.005 22.33 18.13 40.412 40.484 40.415 22.354-.003 40.479-18.085 40.484-40.415 0-.927-.039-1.844-.102-2.756 19.588-2.825 34.645-19.64 34.647-39.991a40.32 40.32 0 00-1.704-11.593c16.143-5.313 27.8-20.476 27.805-38.381zM77.494 35.329c-.012 5.464-5.982 9.759-10.873 9.768-3.374-.259-5.349-1.203-5.573-6.094.19-7.787 4.528-9.777 11.069-10.07 1.082-.033 2.193.053 3.306.214 1.515 2.349 2.08 4.441 2.071 6.182zm32.459-.045c1.619 3.286 2.581 4.253 2.95 4.599a2.497 2.497 0 003.448-.152c.005-.005 4.587-4.779 11.693-12.379-.612 2.417-1.647 4.891-1.767 7.538 0 .711.106 1.488.435 2.257a2.486 2.486 0 001.88 1.482 2.486 2.486 0 002.263-.777c1.58-2.044 9.29-4.105 16.156-4.83 3.114-.385 6.084-.614 8.417-.751a150.06 150.06 0 01-5.651 6.059c-4.479 4.618-10.297 9.448-13.254 10.156a2.498 2.498 0 00-1.272 3.99c2.776 2.531 6.723 2.908 10.14 3.694-10.617 2.184-19.862 2.308-19.879 2.331a2.494 2.494 0 00-2.261 1.515 2.489 2.489 0 00.458 2.68c.017.018.869.943 2.375 2.473a684.362 684.362 0 01-22.591-1.638c3.549-3.274 14.479-12.708 29.472-19.622a.992.992 0 00.489-1.324.996.996 0 00-1.327-.49c-15.515 7.159-26.725 16.938-30.17 20.136a3434.973 3434.973 0 017.996-26.947zm-16.474 39.59c.221.048.439.103.671.122a4.955 4.955 0 002.542-.491c.613-.038 1.23-.063 1.854-.064 16.844.028 30.455 13.625 30.483 30.414-.028 16.786-13.64 30.383-30.483 30.411-16.841-.028-30.452-13.625-30.483-30.411.029-15.068 10.996-27.556 25.416-29.981zm-83.481 29.98c.031-16.789 13.643-30.386 30.486-30.414 9.15 0 17.314 4.009 22.916 10.371a40.166 40.166 0 00-5.335 20.043 40.165 40.165 0 005.332 20.037c-5.593 6.361-13.764 10.375-22.913 10.375-16.843-.029-30.455-13.626-30.486-30.412zm18.584 52.547c0-4.719 1.084-9.155 2.995-13.129 2.867.643 5.846.994 8.907.994 11.379 0 21.676-4.711 29.029-12.266a40.49 40.49 0 0016.549 10.297 30.169 30.169 0 013.486 14.104c-.031 16.789-13.643 30.383-30.483 30.415-16.84-.032-30.455-13.626-30.483-30.415zm67.386 73.161c-16.841-.032-30.455-13.625-30.483-30.414 0-.97.049-1.925.136-2.868 12.655-2.059 23.339-9.968 29.17-20.865 6.195 11.576 17.863 19.788 31.556 21.188.069.838.105 1.687.105 2.545-.033 16.789-13.643 30.382-30.484 30.414zM161 157.401c-.031 16.789-13.643 30.383-30.483 30.415-16.844-.032-30.454-13.625-30.486-30.415.002-4.41.942-8.572 2.623-12.341 9.128-.919 17.354-4.871 23.67-10.822 7.412 8.339 18.247 13.605 30.289 13.605.947 0 1.885-.044 2.815-.108a30.351 30.351 0 011.572 9.666zm-4.388-19.559c-9.653 0-18.228-4.461-23.823-11.44a40.166 40.166 0 006.242-21.548 40.183 40.183 0 00-4.455-18.424c5.56-5.802 13.354-9.414 22.036-9.414 16.841.029 30.454 13.625 30.483 30.411-.029 16.789-13.642 30.383-30.483 30.415z"/><path d="M98.547 130c8.498 0 16.015-4.244 20.528-10.724a1.004 1.004 0 00-.25-1.394 1 1 0 00-1.391.248c-4.16 5.968-11.063 9.869-18.888 9.869a1 1 0 00.001 2.001zm22.544-16.679a1.003 1.003 0 001.258-.648 25.047 25.047 0 001.2-7.672 1.002 1.002 0 00-2.001 0c0 2.465-.388 4.837-1.104 7.059a1.003 1.003 0 00.647 1.261z"/></g></svg>